# xmcd CD database file
#
# Track frame offsets:
#	150
#	13910
#	28405
#	44390
#	58398
#	72005
#	88570
#	103445
#	118835
#	132883
#	147473
#	162788
#
# Disc length: 2377 seconds
#
# Revision: 0
# Processed by: cddbd v1.4PL0 Copyright (c) Steve Scherf et al.
# Submitted via: CDex 1.40Release
#
DISCID=b609470c
DTITLE=Bill Ramsey - Schlager Rundschlag
DYEAR=1990
DGENRE=Country
TTITLE0=American Dollar
TTITLE1=Gute Reise Herr Meier
TTITLE2=Wenn der Vollmond scheint
TTITLE3=Schade um das schöne Bier
TTITLE4=Immer weider mal ein Rückfall
TTITLE5=Du Reinhold - Ich Yeti
TTITLE6=Weekend Paradise
TTITLE7=Esoterik
TTITLE8=Oldtimer - Rallye
TTITLE9=Jogging Joe
TTITLE10=Mister Do Ping
TTITLE11=Schmeiss weg
EXTD=YEAR: 1990 ID3G: 2
EXTT0=
EXTT1=
EXTT2=
EXTT3=
EXTT4=
EXTT5=
EXTT6=
EXTT7=
EXTT8=
EXTT9=
EXTT10=
EXTT11=
PLAYORDER=
